<svg id="visual" viewBox="0 0 900 900" width="900" height="900" xmlns="http://www.w3.org/2000/svg" xmlns:xlink="http://www.w3.org/1999/xlink" version="1.1"><rect x="0" y="0" width="900" height="900" fill="#001220"></rect><defs><linearGradient id="grad1_0" x1="0%" y1="0%" x2="100%" y2="100%"><stop offset="30%" stop-color="#fbae3c" stop-opacity="1"></stop><stop offset="70%" stop-color="#fbae3c" stop-opacity="1"></stop></linearGradient></defs><defs><linearGradient id="grad1_1" x1="0%" y1="0%" x2="100%" y2="100%"><stop offset="30%" stop-color="#fbae3c" stop-opacity="1"></stop><stop offset="70%" stop-color="#96446e" stop-opacity="1"></stop></linearGradient></defs><defs><linearGradient id="grad1_2" x1="0%" y1="0%" x2="100%" y2="100%"><stop offset="30%" stop-color="#001220" stop-opacity="1"></stop><stop offset="70%" stop-color="#96446e" stop-opacity="1"></stop></linearGradient></defs><defs><linearGradient id="grad2_0" x1="0%" y1="0%" x2="100%" y2="100%"><stop offset="30%" stop-color="#fbae3c" stop-opacity="1"></stop><stop offset="70%" stop-color="#fbae3c" stop-opacity="1"></stop></linearGradient></defs><defs><linearGradient id="grad2_1" x1="0%" y1="0%" x2="100%" y2="100%"><stop offset="30%" stop-color="#96446e" stop-opacity="1"></stop><stop offset="70%" stop-color="#fbae3c" stop-opacity="1"></stop></linearGradient></defs><defs><linearGradient id="grad2_2" x1="0%" y1="0%" x2="100%" y2="100%"><stop offset="30%" stop-color="#96446e" stop-opacity="1"></stop><stop offset="70%" stop-color="#001220" stop-opacity="1"></stop></linearGradient></defs><g transform="translate(900, 0)"><path d="M0 540.9C-45.7 476.9 -91.3 412.8 -164.6 397.3C-237.8 381.7 -338.5 414.7 -382.5 382.5C-426.5 350.3 -413.6 252.9 -430.5 178.3C-447.5 103.7 -494.2 51.9 -540.9 0L0 0Z" fill="#3d3056"></path><path d="M0 360.6C-30.4 317.9 -60.9 275.2 -109.7 264.8C-158.5 254.5 -225.7 276.5 -255 255C-284.3 233.5 -275.7 168.6 -287 118.9C-298.3 69.1 -329.5 34.6 -360.6 0L0 0Z" fill="#e1685e"></path><path d="M0 180.3C-15.2 159 -30.4 137.6 -54.9 132.4C-79.3 127.2 -112.8 138.2 -127.5 127.5C-142.2 116.8 -137.9 84.3 -143.5 59.4C-149.2 34.6 -164.7 17.3 -180.3 0L0 0Z" fill="#fbae3c"></path></g><g transform="translate(0, 900)"><path d="M0 -540.9C73.7 -539.2 147.4 -537.4 207 -499.8C266.6 -462.1 312.2 -388.6 320.3 -320.3C328.5 -252.1 299.3 -189.1 329.8 -136.6C360.4 -84.1 450.7 -42.1 540.9 0L0 0Z" fill="#3d3056"></path><path d="M0 -360.6C49.1 -359.4 98.3 -358.3 138 -333.2C177.7 -308.1 208.1 -259 213.5 -213.5C219 -168 199.5 -126.1 219.9 -91.1C240.2 -56.1 300.4 -28 360.6 0L0 0Z" fill="#e1685e"></path><path d="M0 -180.3C24.6 -179.7 49.1 -179.1 69 -166.6C88.9 -154 104.1 -129.5 106.8 -106.8C109.5 -84 99.8 -63 109.9 -45.5C120.1 -28 150.2 -14 180.3 0L0 0Z" fill="#fbae3c"></path></g></svg>