<svg id="visual" viewBox="0 0 900 600" width="900" height="600" xmlns="http://www.w3.org/2000/svg" xmlns:xlink="http://www.w3.org/1999/xlink" version="1.1"><rect x="0" y="0" width="900" height="600" fill="#001220"></rect><defs><linearGradient id="grad1_0" x1="33.3%" y1="0%" x2="100%" y2="100%"><stop offset="20%" stop-color="#fbae3c" stop-opacity="1"></stop><stop offset="80%" stop-color="#fbae3c" stop-opacity="1"></stop></linearGradient></defs><defs><linearGradient id="grad1_1" x1="33.3%" y1="0%" x2="100%" y2="100%"><stop offset="20%" stop-color="#fbae3c" stop-opacity="1"></stop><stop offset="80%" stop-color="#96446e" stop-opacity="1"></stop></linearGradient></defs><defs><linearGradient id="grad1_2" x1="33.3%" y1="0%" x2="100%" y2="100%"><stop offset="20%" stop-color="#001220" stop-opacity="1"></stop><stop offset="80%" stop-color="#96446e" stop-opacity="1"></stop></linearGradient></defs><defs><linearGradient id="grad2_0" x1="0%" y1="0%" x2="66.7%" y2="100%"><stop offset="20%" stop-color="#fbae3c" stop-opacity="1"></stop><stop offset="80%" stop-color="#fbae3c" stop-opacity="1"></stop></linearGradient></defs><defs><linearGradient id="grad2_1" x1="0%" y1="0%" x2="66.7%" y2="100%"><stop offset="20%" stop-color="#96446e" stop-opacity="1"></stop><stop offset="80%" stop-color="#fbae3c" stop-opacity="1"></stop></linearGradient></defs><defs><linearGradient id="grad2_2" x1="0%" y1="0%" x2="66.7%" y2="100%"><stop offset="20%" stop-color="#96446e" stop-opacity="1"></stop><stop offset="80%" stop-color="#001220" stop-opacity="1"></stop></linearGradient></defs><g transform="translate(900, 0)"><path d="M0 486.7C-68.6 485.4 -137.2 484 -186.3 449.7C-235.3 415.4 -264.7 348.1 -297 297C-329.2 245.9 -364.3 211 -396.3 164.2C-428.4 117.4 -457.6 58.7 -486.7 0L0 0Z" fill="#3d3056"></path><path d="M0 324.5C-45.7 323.6 -91.5 322.7 -124.2 299.8C-156.9 276.9 -176.5 232.1 -198 198C-219.5 163.9 -242.8 140.6 -264.2 109.4C-285.6 78.2 -305.1 39.1 -324.5 0L0 0Z" fill="#e1685e"></path><path d="M0 162.2C-22.9 161.8 -45.7 161.3 -62.1 149.9C-78.4 138.5 -88.2 116 -99 99C-109.7 82 -121.4 70.3 -132.1 54.7C-142.8 39.1 -152.5 19.6 -162.2 0L0 0Z" fill="#fbae3c"></path></g><g transform="translate(0, 600)"><path d="M0 -486.7C50.8 -451.6 101.6 -416.5 165.3 -399.1C229 -381.8 305.6 -382.2 344.2 -344.2C382.8 -306.2 383.5 -229.8 401 -166.1C418.4 -102.3 452.6 -51.2 486.7 0L0 0Z" fill="#3d3056"></path><path d="M0 -324.5C33.9 -301.1 67.8 -277.7 110.2 -266.1C152.7 -254.5 203.7 -254.8 229.5 -229.5C255.2 -204.1 255.7 -153.2 267.3 -110.7C278.9 -68.2 301.7 -34.1 324.5 0L0 0Z" fill="#e1685e"></path><path d="M0 -162.2C16.9 -150.5 33.9 -138.8 55.1 -133C76.3 -127.3 101.9 -127.4 114.7 -114.7C127.6 -102.1 127.8 -76.6 133.7 -55.4C139.5 -34.1 150.9 -17.1 162.2 0L0 0Z" fill="#fbae3c"></path></g></svg>