<svg id="visual" viewBox="0 0 900 600" width="900" height="600" xmlns="http://www.w3.org/2000/svg" xmlns:xlink="http://www.w3.org/1999/xlink" version="1.1"><path d="M0 145L15 155C30 165 60 185 90 188C120 191 150 177 180 170C210 163 240 163 270 165C300 167 330 171 360 165C390 159 420 143 450 136C480 129 510 131 540 141C570 151 600 169 630 176C660 183 690 179 720 181C750 183 780 191 810 183C840 175 870 151 885 139L900 127L900 0L885 0C870 0 840 0 810 0C780 0 750 0 720 0C690 0 660 0 630 0C600 0 570 0 540 0C510 0 480 0 450 0C420 0 390 0 360 0C330 0 300 0 270 0C240 0 210 0 180 0C150 0 120 0 90 0C60 0 30 0 15 0L0 0Z" fill="#121212"></path><path d="M0 253L15 259C30 265 60 277 90 279C120 281 150 273 180 272C210 271 240 277 270 283C300 289 330 295 360 284C390 273 420 245 450 231C480 217 510 217 540 231C570 245 600 273 630 280C660 287 690 273 720 270C750 267 780 275 810 269C840 263 870 243 885 233L900 223L900 125L885 137C870 149 840 173 810 181C780 189 750 181 720 179C690 177 660 181 630 174C600 167 570 149 540 139C510 129 480 127 450 134C420 141 390 157 360 163C330 169 300 165 270 163C240 161 210 161 180 168C150 175 120 189 90 186C60 183 30 163 15 153L0 143Z" fill="#202020"></path><path d="M0 331L15 336C30 341 60 351 90 351C120 351 150 341 180 338C210 335 240 339 270 352C300 365 330 387 360 381C390 375 420 341 450 322C480 303 510 299 540 314C570 329 600 363 630 366C660 369 690 341 720 339C750 337 780 361 810 360C840 359 870 333 885 320L900 307L900 221L885 231C870 241 840 261 810 267C780 273 750 265 720 268C690 271 660 285 630 278C600 271 570 243 540 229C510 215 480 215 450 229C420 243 390 271 360 282C330 293 300 287 270 281C240 275 210 269 180 270C150 271 120 279 90 277C60 275 30 263 15 257L0 251Z" fill="#282828"></path><path d="M0 409L15 415C30 421 60 433 90 431C120 429 150 413 180 408C210 403 240 409 270 423C300 437 330 459 360 456C390 453 420 425 450 405C480 385 510 373 540 384C570 395 600 429 630 436C660 443 690 423 720 425C750 427 780 451 810 443C840 435 870 395 885 375L900 355L900 305L885 318C870 331 840 357 810 358C780 359 750 335 720 337C690 339 660 367 630 364C600 361 570 327 540 312C510 297 480 301 450 320C420 339 390 373 360 379C330 385 300 363 270 350C240 337 210 333 180 336C150 339 120 349 90 349C60 349 30 339 15 334L0 329Z" fill="#202020"></path><path d="M0 601L15 601C30 601 60 601 90 601C120 601 150 601 180 601C210 601 240 601 270 601C300 601 330 601 360 601C390 601 420 601 450 601C480 601 510 601 540 601C570 601 600 601 630 601C660 601 690 601 720 601C750 601 780 601 810 601C840 601 870 601 885 601L900 601L900 353L885 373C870 393 840 433 810 441C780 449 750 425 720 423C690 421 660 441 630 434C600 427 570 393 540 382C510 371 480 383 450 403C420 423 390 451 360 454C330 457 300 435 270 421C240 407 210 401 180 406C150 411 120 427 90 429C60 431 30 419 15 413L0 407Z" fill="#121212"></path></svg>